<svg width="17" height="17" viewBox="0 0 17 17" fill="none" xmlns="http://www.w3.org/2000/svg">
<g clip-path="url(#clip0_475_5634)">
<path d="M3.90622e-05 2.74629C0.278945 2.17285 0.737813 1.97089 1.35273 2.01142C1.85941 2.04451 2.37008 2.03033 2.87809 2.00939C3.00359 2.00399 3.12512 1.89119 3.24797 1.82635C3.4359 1.72774 3.61387 1.59468 3.81309 1.53929C3.98773 1.49066 4.18496 1.52916 4.41074 1.52916C4.4373 0.993539 4.58738 0.503174 5.05887 0.233675C5.30656 0.091834 5.61867 -0.00272679 5.9009 -0.000700482C6.6234 0.00402756 7.02117 0.474805 7.25426 1.52983C7.405 1.52983 7.56703 1.53726 7.72773 1.52848C8.02988 1.5116 8.25699 1.62102 8.43297 1.88038C8.48609 1.95873 8.62754 2.01142 8.72914 2.01412C9.32613 2.02628 9.92312 2.01682 10.5201 2.02155C11.2393 2.02695 11.6278 2.42006 11.6311 3.14885C11.6351 4.01273 11.6318 4.87661 11.6318 5.74725C11.9293 5.79588 12.2035 5.82222 12.4678 5.88706C15.1692 6.54764 16.2603 9.85524 14.5065 12.049C14.4387 12.1342 14.4109 12.2517 14.3644 12.3543C14.466 12.3773 14.5696 12.3915 14.6679 12.4253C14.7475 12.453 14.8478 12.4827 14.891 12.5455C15.5982 13.5762 16.2975 14.613 16.9987 15.6478C16.9987 15.8281 16.9987 16.0078 16.9987 16.1881C16.9775 16.2111 16.9489 16.23 16.935 16.257C16.4741 17.1736 15.5437 17.2553 14.958 16.4265C14.3777 15.6052 13.7953 14.7852 13.2321 13.9517C13.1412 13.8173 13.1684 13.6066 13.106 13.4445C13.0708 13.3533 12.9506 13.2162 12.8908 13.227C12.4811 13.2986 12.0767 13.404 11.6603 13.5012C11.6577 13.5066 11.6411 13.5262 11.6411 13.5458C11.6371 14.2651 11.6337 14.9845 11.6311 15.7038C11.6278 16.5691 11.2718 16.9304 10.4218 16.9311C7.38242 16.9311 4.34234 16.9196 1.30293 16.9412C0.691992 16.9453 0.255039 16.7595 -0.00195312 16.1888C3.90622e-05 11.708 3.90622e-05 7.22712 3.90622e-05 2.74629ZM3.11383 3.48927C2.67422 3.48927 2.26449 3.50615 1.85742 3.48319C1.58648 3.46765 1.52141 3.56424 1.52207 3.82834C1.52937 7.59929 1.52937 11.3696 1.52273 15.1405C1.52207 15.385 1.58516 15.4762 1.8375 15.4755C4.49309 15.4681 7.14933 15.4674 9.80492 15.4755C10.0646 15.4762 10.121 15.3769 10.115 15.1378C10.1011 14.5752 10.1004 14.0119 10.1157 13.4499C10.1217 13.2297 10.0559 13.1142 9.85738 13.0095C7.36449 11.6938 7.0723 8.15922 9.37992 6.54493C10.0002 6.11063 10.1808 5.69524 10.1137 5.00832C10.0652 4.51188 10.1044 4.00665 10.1044 3.49872C9.55125 3.49872 9.04523 3.49872 8.51332 3.49872C8.54453 3.8871 8.30281 3.90736 8.01992 3.90669C6.55898 3.90128 5.09871 3.90061 3.63777 3.90871C3.3416 3.91074 3.09656 3.88507 3.11383 3.48927ZM3.11383 2.54636C2.45707 2.54636 1.83949 2.54569 1.22125 2.54636C0.646836 2.54771 0.51668 2.67672 0.51668 3.25624C0.516016 7.40814 0.51668 11.56 0.517344 15.7119C0.517344 16.2779 0.643516 16.4056 1.2 16.4056C3.20215 16.407 5.2043 16.4063 7.20644 16.4063C8.3234 16.4063 9.44102 16.4042 10.558 16.407C10.8482 16.4076 11.0959 16.3063 11.1045 15.9943C11.1291 15.1432 11.1131 14.2915 11.1131 13.4256C10.9431 13.3945 10.7984 13.3682 10.6264 13.3364C10.6264 13.997 10.6284 14.615 10.6257 15.2324C10.623 15.7619 10.3993 15.9902 9.87465 15.9902C7.1759 15.9922 4.47648 15.9916 1.77773 15.9902C1.2352 15.9902 1.00941 15.7626 1.00941 15.2121C1.00809 11.3864 1.00809 7.56079 1.00941 3.73513C1.00941 3.19343 1.24516 2.96243 1.7857 2.95905C2.22465 2.95635 2.66359 2.95838 3.11316 2.95838C3.11383 2.8064 3.11383 2.69766 3.11383 2.54636ZM11.5727 6.3038C9.7757 6.30853 8.32207 7.79179 8.32473 9.61816C8.32738 11.4398 9.79762 12.9339 11.5833 12.9291C13.3962 12.9244 14.8458 11.4412 14.8452 9.59047C14.8445 7.77287 13.3776 6.29908 11.5727 6.3038ZM7.96945 3.36431C7.97543 3.23868 7.98273 3.1502 7.98273 3.06172C7.98406 2.80303 8.00266 2.54163 7.97144 2.28767C7.96082 2.20189 7.82601 2.08099 7.73504 2.0668C7.51855 2.03371 7.29476 2.0533 7.07363 2.056C6.85781 2.0587 6.74758 1.94793 6.725 1.73517C6.70773 1.56766 6.70242 1.39745 6.66855 1.23332C6.57691 0.786856 6.22496 0.503174 5.79465 0.513305C5.38027 0.522761 5.04957 0.811172 4.96656 1.24615C4.93734 1.40015 4.92273 1.55753 4.91144 1.71423C4.89551 1.94523 4.78395 2.06208 4.55219 2.0587C4.33105 2.05532 4.10859 2.04384 3.89012 2.0668C3.80644 2.07558 3.66633 2.16677 3.66301 2.22621C3.64176 2.6031 3.65238 2.98134 3.65238 3.36364C5.11 3.36431 6.52246 3.36431 7.96945 3.36431ZM13.6751 13.6863C13.9361 14.0598 14.1771 14.407 14.4202 14.7535C14.7675 15.2479 15.1068 15.7484 15.4667 16.2327C15.6699 16.5056 15.978 16.5414 16.2304 16.3597C16.4768 16.1827 16.5757 15.8693 16.4064 15.618C15.8266 14.7582 15.225 13.9126 14.618 13.0419C14.2907 13.2662 13.9918 13.4702 13.6751 13.6863ZM8.52129 2.92258C8.56777 2.93879 8.58836 2.95162 8.60894 2.95162C9.10566 2.955 9.60238 2.95703 10.0991 2.95973C10.548 2.96243 10.6377 3.06645 10.6323 3.51426C10.6237 4.29844 10.6297 5.08329 10.6297 5.90125C10.8176 5.79858 11.1191 5.96339 11.1218 5.61148C11.1291 4.75774 11.1271 3.90466 11.1204 3.05091C11.1184 2.78209 10.977 2.57068 10.712 2.5619C9.98687 2.53893 9.26105 2.55379 8.52062 2.55379C8.52129 2.69158 8.52129 2.80033 8.52129 2.92258Z" fill="white"/>
<path d="M2.12702 6.35247C2.12702 6.00462 2.13565 5.65609 2.12436 5.30892C2.11507 5.02524 2.22331 4.89961 2.51151 4.90366C3.20678 4.91379 3.90206 4.91041 4.59733 4.90366C4.84702 4.90096 4.96655 5.0097 4.96588 5.26299C4.96455 5.98165 4.96323 6.69964 4.96655 7.4183C4.96787 7.66956 4.8583 7.79249 4.60862 7.79182C3.90206 7.78979 3.19616 7.78844 2.4896 7.79317C2.21866 7.79519 2.11573 7.66146 2.12237 7.39669C2.131 7.04884 2.12436 6.70099 2.12436 6.35314C2.12635 6.35247 2.12702 6.35247 2.12702 6.35247ZM2.66358 7.24201C3.2619 7.24201 3.84096 7.24201 4.42334 7.24201C4.42334 6.63007 4.42334 6.04109 4.42334 5.46022C3.81971 5.46022 3.24065 5.46022 2.66358 5.46022C2.66358 6.06811 2.66358 6.64831 2.66358 7.24201Z" fill="white"/>
<path d="M2.12697 10.2058C2.12697 9.85799 2.13361 9.50946 2.12497 9.16229C2.11767 8.89617 2.22259 8.76581 2.49286 8.76716C3.19876 8.77121 3.90533 8.76851 4.61122 8.76648C4.86224 8.76581 4.96783 8.89482 4.9665 9.14338C4.96318 9.86204 4.96451 10.58 4.96583 11.2987C4.9665 11.554 4.84165 11.6601 4.59529 11.6587C3.88939 11.6547 3.18283 11.656 2.47693 11.6594C2.22392 11.6607 2.11966 11.5338 2.12364 11.2838C2.12896 10.9245 2.12497 10.5658 2.12497 10.2065C2.12564 10.2058 2.1263 10.2058 2.12697 10.2058ZM4.42396 11.1163C4.42396 10.4929 4.42396 9.90595 4.42396 9.31967C3.82232 9.31967 3.24458 9.31967 2.66751 9.31967C2.66751 9.93026 2.66751 10.5179 2.66751 11.1163C3.26118 11.1163 3.83095 11.1163 4.42396 11.1163Z" fill="white"/>
<path d="M6.60348 5.63844C6.92422 5.63844 7.24695 5.61615 7.56371 5.64992C7.68191 5.66208 7.78617 5.80527 7.89707 5.88835C7.79148 5.97818 7.68789 6.14231 7.57965 6.14569C6.90629 6.17001 6.23094 6.17001 5.55758 6.14569C5.45 6.14164 5.3484 5.97751 5.24414 5.88768C5.35438 5.80527 5.4593 5.66208 5.57617 5.65127C5.91617 5.61885 6.26016 5.63979 6.60281 5.63979C6.60348 5.63912 6.60348 5.63844 6.60348 5.63844Z" fill="white"/>
<path d="M6.21308 10.0281C5.99261 10.0281 5.76616 10.0585 5.55366 10.016C5.43811 9.99231 5.34714 9.84372 5.24487 9.75185C5.34382 9.66877 5.43878 9.5195 5.54237 9.51342C5.99327 9.48708 6.44683 9.4864 6.89706 9.51342C6.998 9.5195 7.08964 9.6735 7.18593 9.75928C7.09296 9.84912 7.00995 9.99704 6.90503 10.016C6.68058 10.0558 6.44483 10.0281 6.21308 10.0281Z" fill="white"/>
<path d="M6.18784 7.05754C5.96804 7.05754 5.74292 7.08591 5.53042 7.04606C5.42351 7.0258 5.33917 6.88261 5.24487 6.7948C5.33917 6.707 5.42882 6.54962 5.52843 6.54354C5.96604 6.51517 6.40765 6.51517 6.84593 6.54219C6.94554 6.54827 7.03585 6.70565 7.13015 6.79345C7.03585 6.88126 6.95151 7.02512 6.84526 7.04539C6.6321 7.08524 6.40765 7.05754 6.18784 7.05754Z" fill="white"/>
<path d="M6.11207 10.9237C5.91418 10.9237 5.70965 10.9541 5.52105 10.9116C5.41547 10.8879 5.33512 10.7434 5.24414 10.6536C5.33113 10.5691 5.41414 10.4178 5.50645 10.4124C5.93344 10.3861 6.36375 10.3861 6.79074 10.4117C6.88105 10.4171 6.96273 10.5705 7.0484 10.6556C6.95609 10.7447 6.87441 10.8906 6.76949 10.9102C6.55699 10.9501 6.33188 10.9224 6.11207 10.9224C6.11207 10.9224 6.11207 10.9231 6.11207 10.9237Z" fill="white"/>
<path d="M11.58 12.4948C10.0062 12.486 8.75443 11.2094 8.75708 9.61539C8.75974 8.0038 10.0321 6.71981 11.6126 6.73264C13.1764 6.74547 14.4282 8.03893 14.4182 9.63227C14.4089 11.2297 13.1452 12.5035 11.58 12.4948ZM11.5867 7.26285C10.2944 7.2615 9.27107 8.3064 9.27373 9.62484C9.27638 10.9196 10.2944 11.9618 11.5714 11.976C12.849 11.9902 13.8943 10.9359 13.9022 9.62417C13.9109 8.31721 12.8783 7.26421 11.5867 7.26285Z" fill="white"/>
<path d="M3.46173 6.2039C3.58724 6.06814 3.66892 5.93305 3.78712 5.86686C3.8688 5.82093 4.02817 5.83308 4.10255 5.88847C4.15966 5.93102 4.18821 6.11609 4.14571 6.17823C3.98966 6.40653 3.81368 6.62604 3.61181 6.81179C3.55005 6.86853 3.36345 6.84218 3.26716 6.79018C3.15759 6.73074 3.05665 6.61321 3.00618 6.49636C2.95771 6.38289 2.97829 6.23835 2.96899 6.10731C3.09649 6.10934 3.22399 6.10596 3.35083 6.11744C3.38603 6.12082 3.41657 6.16742 3.46173 6.2039Z" fill="white"/>
<path d="M3.06392 10.2038C3.06392 10.0383 3.01079 9.8384 3.08384 9.7202C3.12767 9.64996 3.37072 9.70737 3.52876 9.73033C3.69876 9.73033 3.86876 9.73033 4.03876 9.73033C4.0288 9.88838 4.01951 10.0458 4.00955 10.2119C4.00955 10.374 4.00955 10.5476 4.00955 10.7205C3.85548 10.7097 3.70076 10.6989 3.54669 10.6874C3.54736 10.6935 3.54802 10.6996 3.54869 10.7057C3.38599 10.7057 3.1549 10.7705 3.07919 10.6881C2.99751 10.5996 3.0606 10.372 3.0606 10.2052C3.06126 10.2052 3.06259 10.2045 3.06392 10.2038Z" fill="white"/>
</g>
<defs>
<clipPath id="clip0_475_5634">
<rect width="17" height="17" fill="white"/>
</clipPath>
</defs>
</svg>
